M48
FMAT,2
INCH,LZ
T1C0.0360
%
T1
X0545Y095
X0615Y095
X0625Y095
X0555Y095
X0665Y095
X0605Y095
X0695Y095
X0755Y095
X0565Y095
X0645Y095
X0585Y095
X0775Y095
X0525Y095
X0015Y0535
X0015Y0325
X0015Y0525
X0015Y0515
X0015Y0485
X0015Y0425
X0015Y0375
X0015Y0385
X0015Y0345
X0015Y0455
X0015Y0365
X0015Y0355
X0015Y0335
X0015Y0395
X0015Y0495
X0685Y095
X0785Y095
X0015Y0405
X0015Y0415
X0015Y0435
X0015Y0445
X0015Y0465
X0795Y095
X0705Y095
X0725Y095
X0675Y095
X0015Y0505
X0835Y095
X0735Y095
X0635Y095
X0595Y095
X0575Y095
X0535Y095
X0765Y095
X0715Y095
X0825Y095
X0655Y095
X0815Y095
X0805Y095
X0015Y0475
X0745Y095
M30
