%FSTAX24Y24*%
%MOIN*%
%IN LAYER1.GBR *%
%ADD10C,0.0100*%
%ADD11C,0.0200*%
%ADD12C,0.0700*%
G54D12*X0015Y0385D03*Y0345D03*Y0455D03*Y0365D03*Y0355D03*Y0335D03*
Y0395D03*Y0495D03*X0685Y095D03*X0785D03*X0015Y0405D03*Y0415D03*
Y0435D03*Y0445D03*Y0465D03*X0795Y095D03*X0705D03*X0725D03*X0675D03*
X0015Y0505D03*X0835Y095D03*X0735D03*X0635D03*X0595D03*X0575D03*
X0535D03*X0765D03*X0715D03*X0825D03*X0655D03*X0815D03*X0805D03*
X0015Y0475D03*X0745Y095D03*X0545D03*X0615D03*X0625D03*X0555D03*
X0665D03*X0605D03*X0695D03*X0755D03*X0565D03*X0645D03*X0585D03*
X0775D03*X0525D03*X0015Y0535D03*Y0325D03*Y0525D03*Y0515D03*Y0485D03*
Y0425D03*Y0375D03*G54D11*G01X0555Y095D02*Y0935D01*X0195*Y0015*
X0565Y095D02*Y093D01*X0235*Y0015*X0575Y095D02*Y0925D01*X0275*Y0015*
X0315D02*Y092D01*X0585*Y095*X0595D02*Y0915D01*X0355*Y0015*X0395D02*
Y091D01*X0605*Y095*X0435Y0015D02*Y0905D01*X0615*Y095*X0625Y0935D02*
Y095D01*Y09*X0475*Y0015*X0515D02*Y0895D01*X0635*Y095*X0555Y0015D02*
Y089D01*X0645*Y095*X0595Y0015D02*Y0885D01*X0655*Y095*X0635Y0015D02*
Y088D01*X0665*Y095*X1275Y0015D02*Y0945D01*X0825*Y095*X1235Y0025D02*
Y0015D01*Y094*X0815*Y095*X1155Y0025D02*Y0015D01*Y093*X0795*Y095*
X1075Y0015D02*Y092D01*X0775*Y095*X0745D02*Y0905D01*X0955*Y0015*
X0915D02*Y09D01*X0735*Y095*X0875Y0015D02*Y0895D01*X0725*Y095*
X0835Y0015D02*Y089D01*X0715*Y095*X0705D02*Y0885D01*X0795*Y0015*
X0995D02*Y091D01*X0755*Y095*X0525D02*X0075D01*Y0015*Y0855*X0535Y095D02*
Y0945D01*X0115*Y0015*X0675Y095D02*Y0015D01*X0755D02*Y088D01*X0695*Y095*
X0715Y0015D02*Y0875D01*X0685*Y095*X0155Y0015D02*Y094D01*X0545*Y095*
X1035Y0015D02*Y0915D01*X0765*Y095*X1115Y0015D02*Y0925D01*X0785*Y095*
X0805D02*Y0935D01*X1195*Y0015*Y0035*X0835Y095D02*X1315D01*Y0855*G54D10*
G01Y095D01*G54D11*G01Y0855D02*Y0015D01*
M02*